<?xml version="1.0" standalone="no"?>
<!DOCTYPE svg PUBLIC "-//W3C//DTD SVG 20010904//EN"
 "http://www.w3.org/TR/2001/REC-SVG-20010904/DTD/svg10.dtd">
<svg version="1.0" xmlns="http://www.w3.org/2000/svg"
 width="512.000000pt" height="512.000000pt" viewBox="0 0 512.000000 512.000000"
 preserveAspectRatio="xMidYMid meet">

<g transform="translate(0.000000,512.000000) scale(0.100000,-0.100000)"
fill="#000000" stroke="none">
<path d="M1005 5110 c-200 -40 -368 -199 -419 -396 -14 -56 -16 -277 -16
-2154 0 -1877 2 -2098 16 -2154 44 -170 169 -308 344 -376 l65 -25 1039 -3
c1011 -2 1042 -2 1119 17 154 39 281 142 349 281 52 107 58 152 58 420 0 132
2 240 4 240 2 0 23 -9 47 -19 58 -26 185 -51 254 -51 283 0 551 193 649 469
29 80 31 96 31 221 0 125 -2 141 -31 221 -56 158 -171 297 -308 374 -198 110
-406 120 -628 30 -17 -7 -18 14 -18 355 0 341 1 362 18 355 131 -53 253 -71
372 -55 162 22 280 81 401 200 89 89 157 211 185 336 22 101 15 261 -16 354
-70 209 -238 378 -446 446 -79 26 -102 29 -214 29 -114 -1 -133 -4 -212 -32
l-88 -31 0 239 c0 267 -6 312 -58 419 -68 139 -195 241 -348 280 -75 19 -110
20 -1093 19 -559 -1 -1034 -5 -1056 -9z m2177 -172 c121 -56 209 -176 228
-309 5 -35 10 -176 10 -313 l0 -248 -66 -71 c-74 -80 -134 -193 -158 -297 -21
-87 -20 -224 1 -313 10 -40 18 -76 18 -80 0 -4 -153 -86 -339 -181 l-339 -173
-81 81 c-94 94 -161 136 -283 179 -78 27 -101 31 -203 31 -200 0 -347 -60
-491 -204 -70 -69 -94 -101 -127 -170 -53 -109 -72 -191 -72 -311 0 -309 193
-569 490 -660 108 -33 275 -34 380 -1 138 44 238 107 327 207 l51 56 333 -166
c184 -92 339 -171 345 -176 7 -6 5 -30 -8 -81 -28 -105 -20 -273 17 -381 31
-88 102 -203 164 -262 l41 -39 0 -256 c0 -140 -4 -281 -10 -313 -21 -131 -102
-242 -219 -300 l-66 -32 -1060 0 -1060 0 -57 27 c-117 55 -204 167 -227 293
-15 83 -15 4087 0 4170 26 144 124 257 268 310 29 11 232 13 1086 12 l1050 -2
57 -27z m818 -873 c221 -59 383 -251 405 -481 12 -119 -33 -273 -106 -365
l-31 -39 -36 29 c-97 75 -219 113 -367 113 -147 0 -285 -43 -373 -116 l-30
-26 -27 31 c-64 76 -115 222 -115 329 0 239 171 460 406 525 66 18 207 18 274
0z m-28 -896 c60 -13 150 -52 168 -74 9 -11 2 -19 -39 -40 -105 -53 -252 -69
-364 -40 -71 18 -160 62 -152 75 3 5 25 21 49 35 83 48 227 67 338 44z m-650
-46 c20 -27 50 -61 67 -77 l31 -30 0 -454 0 -455 -48 -51 c-26 -28 -57 -64
-69 -81 l-22 -30 -340 170 c-188 93 -341 172 -341 175 0 3 10 34 22 70 31 94
31 306 0 400 -12 36 -18 66 -14 68 4 1 156 79 337 171 182 93 332 169 335 170
3 0 22 -20 42 -46z m-1314 -59 c33 -40 69 -124 78 -185 l7 -39 -132 0 c-72 0
-131 4 -131 8 0 45 66 198 100 232 28 28 44 25 78 -16z m-273 -31 c-18 -42
-45 -136 -45 -155 0 -18 -4 -19 -37 -14 -21 4 -55 12 -76 17 -32 8 -36 12 -27
28 17 32 158 140 184 141 4 0 5 -8 1 -17z m518 -17 c29 -18 72 -54 96 -79 l44
-46 -39 -9 c-22 -6 -55 -13 -75 -16 l-36 -6 -21 77 c-11 43 -24 86 -27 96 -10
24 -1 22 58 -17z m-678 -283 l85 -18 0 -157 c0 -157 0 -158 -22 -158 -13 0
-57 -9 -98 -20 -41 -10 -78 -16 -83 -11 -11 11 -37 140 -37 187 0 45 17 144
31 181 6 17 14 23 25 19 8 -3 53 -14 99 -23z m911 -30 c20 -70 20 -208 0 -282
-8 -29 -16 -54 -18 -56 -2 -2 -47 7 -102 19 l-99 23 1 153 1 154 93 22 c51 12
96 22 100 23 4 0 15 -24 24 -56z m-366 -143 l0 -135 -154 0 -154 0 -6 35 c-3
19 -6 64 -6 100 0 36 3 81 6 100 l6 35 154 0 154 0 0 -135z m-37 -337 c-20
-76 -57 -154 -87 -182 -34 -32 -60 -20 -96 42 -27 46 -70 163 -70 188 0 5 60
9 134 9 l134 0 -15 -57z m-393 18 c0 -10 11 -52 24 -92 13 -41 23 -76 21 -77
-2 -2 -24 8 -49 23 -54 32 -153 122 -143 131 7 8 103 32 130 33 10 1 17 -6 17
-18z m664 -2 l38 -10 -23 -27 c-47 -52 -165 -140 -174 -130 -2 2 7 39 20 81
14 43 25 85 25 93 0 17 27 15 114 -7z m1634 -134 c192 -46 355 -207 402 -400
36 -149 -5 -347 -95 -453 l-26 -31 -65 44 c-99 68 -181 90 -339 90 -156 0
-240 -23 -344 -92 -35 -24 -67 -40 -70 -36 -144 193 -168 397 -70 592 113 227
362 344 607 286z m-14 -900 c66 -14 166 -61 173 -82 4 -12 -95 -58 -157 -72
-25 -6 -81 -11 -125 -11 -44 0 -100 5 -125 11 -64 14 -161 60 -157 73 6 20
105 67 169 81 83 18 138 18 222 0z"/>
<path d="M1665 4806 c-100 -45 -136 -173 -76 -267 53 -84 52 -84 476 -84 l370
0 47 27 c122 72 116 251 -12 319 -32 18 -63 19 -405 19 -287 -1 -377 -4 -400
-14z m749 -145 c14 -15 15 -24 6 -40 -11 -21 -16 -21 -355 -21 -330 0 -345 1
-355 19 -13 25 -13 27 6 45 13 14 59 16 348 16 315 0 334 -1 350 -19z"/>
<path d="M1492 527 c-27 -29 -28 -71 -2 -97 20 -20 33 -20 575 -20 542 0 555
0 575 20 27 27 26 71 -3 98 l-23 22 -550 0 -551 0 -21 -23z"/>
<path d="M3740 3919 c-94 -48 -148 -132 -149 -235 -2 -144 101 -260 242 -271
78 -7 134 9 189 50 132 101 145 291 29 407 -86 86 -201 104 -311 49z m155
-119 c25 0 75 -51 86 -90 22 -73 -45 -160 -124 -160 -36 0 -89 40 -110 82 -32
65 7 146 79 168 16 4 35 6 42 4 8 -2 20 -4 27 -4z"/>
<path d="M3795 1981 c-81 -21 -145 -77 -183 -160 -21 -45 -24 -64 -20 -120 11
-149 120 -251 268 -251 153 0 270 115 269 265 -1 71 -13 108 -55 167 -56 79
-183 124 -279 99z m144 -166 c35 -30 56 -85 46 -122 -25 -100 -142 -134 -213
-63 -53 52 -48 136 9 184 43 36 115 36 158 1z"/>
</g>
</svg>
