<?xml version="1.0" standalone="no"?>
<!DOCTYPE svg PUBLIC "-//W3C//DTD SVG 20010904//EN"
 "http://www.w3.org/TR/2001/REC-SVG-20010904/DTD/svg10.dtd">
<svg version="1.0" xmlns="http://www.w3.org/2000/svg"
 width="512.000000pt" height="512.000000pt" viewBox="0 0 512.000000 512.000000"
 preserveAspectRatio="xMidYMid meet">

<g transform="translate(0.000000,512.000000) scale(0.100000,-0.100000)"
fill="#000000" stroke="none">
<path d="M565 3976 c-119 -29 -204 -100 -259 -215 l-31 -66 0 -1135 0 -1135
24 -60 c33 -82 124 -173 206 -206 l60 -24 1995 0 1995 0 57 23 c74 30 156 105
192 175 15 31 32 85 37 125 6 42 9 494 7 1153 l-3 1084 -31 66 c-18 37 -48 84
-68 106 -43 48 -132 97 -204 112 -79 17 -3908 14 -3977 -3z m3005 -1041 c-669
-668 -875 -869 -910 -884 -59 -27 -151 -27 -205 -2 -27 13 -312 292 -905 885
l-865 866 1875 0 1875 0 -865 -865z m-2522 -902 c-315 -315 -576 -573 -580
-573 -5 0 -8 495 -8 1100 0 967 2 1105 15 1137 l16 37 564 -564 565 -565 -572
-572z m3597 1667 c13 -25 15 -163 15 -1135 0 -608 -3 -1105 -7 -1105 -5 0
-266 258 -580 572 l-573 573 562 562 c310 310 564 563 565 563 1 0 9 -13 18
-30z m-2265 -1823 c80 -38 168 -51 249 -37 131 23 151 38 461 346 157 156 290
284 295 284 12 0 1145 -1131 1145 -1143 0 -4 -884 -7 -1965 -7 -1081 0 -1965
3 -1965 7 0 5 258 265 572 580 l573 573 290 -289 c233 -232 301 -293 345 -314z"/>
</g>
</svg>
