<?xml version="1.0" standalone="no"?>
<!DOCTYPE svg PUBLIC "-//W3C//DTD SVG 20010904//EN"
 "http://www.w3.org/TR/2001/REC-SVG-20010904/DTD/svg10.dtd">
<svg version="1.0" xmlns="http://www.w3.org/2000/svg"
 width="512.000000pt" height="512.000000pt" viewBox="0 0 512.000000 512.000000"
 preserveAspectRatio="xMidYMid meet">

<g transform="translate(0.000000,512.000000) scale(0.100000,-0.100000)"
fill="#000000" stroke="none">
<path d="M1025 4225 c-51 -18 -120 -91 -134 -141 -16 -56 -15 -2993 0 -3049
15 -53 91 -129 144 -144 57 -15 2993 -15 3050 0 53 15 129 91 144 144 15 57
15 2993 0 3050 -15 53 -91 129 -144 144 -28 8 -470 11 -1530 11 -1259 -1
-1496 -3 -1530 -15z m3052 -147 c23 -21 23 -23 23 -275 l0 -253 -1540 0 -1540
0 0 252 c0 245 1 252 22 275 l21 23 1496 0 1495 0 23 -22z m23 -1835 l0 -1177
-22 -23 -21 -23 -1496 0 -1495 0 -23 22 -23 21 0 1179 0 1178 1540 0 1540 0 0
-1177z"/>
<path d="M1330 3940 c-17 -17 -20 -33 -20 -114 0 -90 1 -96 26 -115 15 -12 32
-21 39 -21 7 0 24 9 39 21 25 20 26 24 26 119 0 91 -2 100 -22 114 -31 22 -64
20 -88 -4z"/>
<path d="M1610 3940 c-18 -18 -20 -31 -18 -117 3 -90 5 -97 29 -116 17 -12 34
-17 48 -12 44 14 51 31 51 134 0 82 -3 101 -18 114 -25 23 -68 21 -92 -3z"/>
<path d="M1890 3940 c-18 -18 -20 -31 -18 -117 3 -90 5 -97 29 -116 17 -12 34
-17 48 -12 44 14 51 31 51 134 0 82 -3 101 -18 114 -25 23 -68 21 -92 -3z"/>
<path d="M2487 3878 c-9 -7 -19 -25 -22 -40 -5 -21 -1 -33 19 -52 l25 -26 631
0 c617 0 630 0 650 20 25 25 26 72 2 93 -17 15 -77 17 -653 17 -493 0 -639 -3
-652 -12z"/>
<path d="M3383 3220 c-36 -11 -1202 -1091 -1234 -1143 -11 -18 -22 -48 -25
-68 l-6 -36 -62 -5 c-206 -17 -362 -246 -416 -610 -15 -100 -7 -132 36 -148
30 -12 59 1 87 37 26 33 70 53 237 108 229 76 300 118 344 207 19 38 26 68 26
110 0 54 2 58 23 58 59 0 128 66 659 638 293 316 541 590 550 610 50 107 -23
234 -142 247 -25 2 -59 0 -77 -5z m92 -167 c0 -27 -62 -98 -518 -590 -285
-307 -532 -568 -549 -580 -17 -13 -41 -23 -54 -23 -74 0 -127 79 -94 140 6 11
270 261 586 555 497 463 579 536 602 533 23 -3 27 -8 27 -35z m-1335 -1235
c78 -40 118 -128 87 -193 -10 -20 -35 -45 -64 -62 -48 -28 -362 -137 -371
-128 -8 8 49 179 80 236 36 70 103 136 154 154 53 19 63 18 114 -7z"/>
</g>
</svg>
