<?xml version="1.0" standalone="no"?>
<!DOCTYPE svg PUBLIC "-//W3C//DTD SVG 20010904//EN"
 "http://www.w3.org/TR/2001/REC-SVG-20010904/DTD/svg10.dtd">
<svg version="1.0" xmlns="http://www.w3.org/2000/svg"
 width="512.000000pt" height="512.000000pt" viewBox="0 0 512.000000 512.000000"
 preserveAspectRatio="xMidYMid meet">

<g transform="translate(0.000000,512.000000) scale(0.100000,-0.100000)"
fill="#000000" stroke="none">
<path d="M1470 4296 c-107 -29 -195 -101 -237 -194 -35 -75 -43 -148 -43 -409
l0 -232 -297 -3 c-337 -3 -341 -4 -417 -88 -71 -79 -71 -76 -74 -462 l-3 -348
-118 0 c-106 0 -121 -2 -151 -23 -19 -12 -43 -38 -54 -57 -21 -34 -21 -49 -24
-760 -2 -399 0 -744 3 -768 7 -50 53 -108 102 -128 26 -12 212 -14 1015 -14
638 0 996 4 1020 10 59 17 130 71 163 124 l30 49 3 199 3 198 175 0 175 0 -7
-22 c-18 -60 -79 -162 -127 -215 -77 -84 -87 -102 -87 -154 0 -56 31 -107 80
-131 32 -16 79 -18 527 -18 323 0 501 4 520 11 72 27 115 108 92 176 -6 19
-38 65 -71 101 -65 72 -100 127 -129 202 l-19 50 613 0 c675 0 672 0 769 62
58 36 99 87 136 165 l27 58 3 1135 c2 824 0 1151 -8 1195 -21 105 -70 182
-153 238 -105 72 17 67 -1776 66 -1252 0 -1626 -3 -1661 -13z m3321 -110 c56
-20 103 -61 135 -118 l29 -53 3 -947 2 -948 -1285 0 -1285 0 0 883 c0 673 -3
886 -12 895 -9 9 -114 12 -412 12 -358 0 -401 -2 -418 -17 -16 -15 -18 -35
-18 -225 l0 -208 -115 0 -115 0 0 263 c1 277 4 303 51 371 25 37 76 75 123 93
47 18 3267 17 3317 -1z m-2503 -579 c1 -110 -1 -197 -5 -195 -87 44 -77 43
-365 46 l-278 3 0 175 0 174 323 -2 322 -3 3 -198z m-77 -280 c19 -12 44 -42
57 -67 l22 -44 0 -1081 c0 -1032 -1 -1082 -19 -1121 -10 -23 -34 -52 -52 -65
l-34 -24 -559 -3 -559 -2 7 37 c3 21 6 95 6 166 l0 127 525 0 526 0 25 25 24
24 -2 847 c-3 824 -3 846 -22 860 -17 12 -136 14 -757 14 -687 0 -738 -1 -758
-17 -20 -17 -21 -28 -23 -228 l-3 -210 -53 -3 -53 -3 3 345 c3 332 4 346 24
373 11 15 36 38 54 51 l33 22 777 0 777 0 34 -23z m-141 -1192 l0 -775 -495 0
-495 0 0 60 0 60 439 0 440 0 15 22 c13 18 16 54 16 184 0 144 -2 164 -19 185
l-19 24 -442 3 -441 3 3 42 3 42 103 5 c76 4 105 9 112 20 6 9 10 169 10 381
0 300 -3 369 -14 385 -13 18 -28 19 -231 19 -261 0 -245 9 -245 -137 l0 -98
-40 0 -40 0 0 175 0 175 670 0 670 0 0 -775z m-880 255 l0 -300 -54 0 -53 0
-7 77 c-3 42 -6 124 -6 182 0 96 -2 110 -24 142 -24 35 -78 69 -110 69 -13 0
-16 12 -16 65 l0 65 135 0 135 0 0 -300z m-240 50 c16 -16 20 -33 20 -85 l0
-65 -405 0 -405 0 0 65 c0 111 -24 105 405 105 352 0 366 -1 385 -20z m18
-752 l2 -498 -405 0 -405 0 0 500 0 500 403 -2 402 -3 3 -497z m3991 170 c0
-91 -5 -166 -12 -185 -23 -62 -73 -119 -128 -146 l-53 -27 -1188 0 -1188 0 0
255 0 255 1285 0 1285 0 -1 -152z m-3079 -173 l0 -105 -400 0 -400 0 0 105 0
105 400 0 400 0 0 -105z m1548 -355 c30 -89 84 -180 152 -254 62 -68 69 -83
48 -104 -17 -17 -979 -17 -996 0 -18 18 -15 36 11 61 80 75 168 216 197 315
l13 42 277 0 277 0 21 -60z m-2458 -312 c0 -104 26 -98 -403 -98 -432 0 -407
-6 -407 97 l0 63 405 0 405 0 0 -62z"/>
<path d="M2716 3894 c-14 -14 -16 -94 -16 -734 0 -640 2 -720 16 -734 13 -14
65 -16 414 -16 349 0 401 2 414 16 14 14 16 94 16 734 0 640 -2 720 -16 734
-13 14 -65 16 -414 16 -349 0 -401 -2 -414 -16z m742 -731 l2 -643 -332 0
-331 0 6 287 c4 157 7 448 7 645 l0 358 323 -2 322 -3 3 -642z"/>
<path d="M3882 3898 c-9 -9 -12 -187 -12 -740 0 -709 0 -728 19 -738 13 -6
161 -10 414 -10 369 0 395 1 410 18 16 17 17 82 17 735 0 637 -2 717 -16 731
-13 14 -65 16 -418 16 -299 0 -405 -3 -414 -12z m738 -733 l0 -645 -325 0
-325 0 0 638 c0 351 3 642 7 645 3 4 150 7 325 7 l318 0 0 -645z"/>
<path d="M1530 2787 l-25 -13 -3 -378 c-1 -271 1 -383 9 -392 9 -11 57 -14
230 -14 214 0 218 0 233 22 14 19 16 72 16 379 0 336 -1 358 -19 380 -19 24
-23 24 -218 27 -147 2 -204 -1 -223 -11z m350 -397 l0 -300 -135 0 -135 0 0
300 0 300 135 0 135 0 0 -300z"/>
<path d="M270 1961 c-14 -27 -13 -47 6 -65 13 -14 54 -16 288 -16 262 0 274 1
291 20 15 16 17 26 9 48 l-9 27 -287 3 c-276 2 -288 2 -298 -17z"/>
<path d="M282 1724 c-27 -18 -29 -55 -4 -77 16 -15 51 -17 289 -17 249 0 271
1 286 18 22 25 21 48 -3 72 -19 19 -33 20 -283 20 -221 0 -266 -2 -285 -16z"/>
<path d="M282 1484 c-27 -18 -29 -55 -4 -77 16 -15 51 -17 290 -17 269 0 271
0 286 22 21 30 20 44 -4 68 -19 19 -33 20 -283 20 -221 0 -266 -2 -285 -16z"/>
<path d="M3060 1882 c-72 -38 -100 -148 -53 -211 36 -48 69 -65 124 -64 79 1
138 55 146 134 11 117 -111 196 -217 141z m108 -129 c-7 -56 -69 -55 -76 1 -3
20 2 28 20 35 33 13 60 -4 56 -36z"/>
</g>
</svg>
