<?xml version="1.0" standalone="no"?>
<!DOCTYPE svg PUBLIC "-//W3C//DTD SVG 20010904//EN"
 "http://www.w3.org/TR/2001/REC-SVG-20010904/DTD/svg10.dtd">
<svg version="1.0" xmlns="http://www.w3.org/2000/svg"
 width="512.000000pt" height="512.000000pt" viewBox="0 0 512.000000 512.000000"
 preserveAspectRatio="xMidYMid meet">
<metadata>
Created by potrace 1.16, written by Peter Selinger 2001-2019
</metadata>
<g transform="translate(0.000000,512.000000) scale(0.100000,-0.100000)"
fill="#000000" stroke="none">
<path d="M4022 5104 c-333 -52 -674 -191 -1002 -409 -167 -111 -273 -198 -405
-330 l-111 -111 -137 -13 c-264 -24 -490 -86 -689 -188 -120 -61 -243 -148
-301 -213 -31 -34 -37 -47 -37 -86 0 -36 6 -51 28 -73 23 -24 58 -35 247 -80
268 -64 249 -57 240 -79 -15 -40 -16 -71 -2 -98 9 -16 196 -209 416 -429 l401
-400 47 0 c27 0 54 3 62 5 11 4 27 -47 71 -228 36 -145 64 -240 75 -252 30
-33 85 -45 127 -27 92 39 261 302 341 533 59 169 107 425 107 566 l0 51 133
136 c434 446 700 1004 742 1561 7 92 0 126 -36 159 -20 19 -34 21 -123 20 -56
-1 -143 -7 -194 -15z m121 -246 c-52 -426 -298 -927 -626 -1275 -45 -47 -241
-230 -436 -406 l-354 -319 -308 308 -308 308 37 40 c21 23 175 194 344 381
293 324 390 421 539 534 228 172 526 324 779 397 114 32 253 62 301 63 34 1
35 0 32 -31z m-1979 -988 c-102 -113 -130 -139 -148 -135 -130 30 -297 73
-301 77 -10 10 148 86 246 119 74 25 279 75 322 78 4 1 -49 -62 -119 -139z
m1071 -976 c-15 -64 -40 -156 -57 -203 -34 -99 -110 -250 -116 -232 -2 6 -21
82 -41 168 l-37 157 135 123 c75 67 137 119 139 114 2 -5 -9 -62 -23 -127z"/>
<path d="M230 4261 c-56 -17 -110 -53 -153 -101 -83 -93 -77 50 -77 -1706 0
-1554 0 -1564 21 -1618 25 -67 86 -133 154 -166 l50 -25 888 -3 887 -2 -7 -28
c-25 -101 -104 -244 -190 -346 -99 -116 -105 -127 -100 -170 3 -23 16 -50 33
-67 l28 -29 796 0 796 0 28 29 c17 17 30 44 33 67 5 44 -1 55 -100 171 -89
104 -167 244 -193 348 l-6 25 876 0 c859 0 876 0 930 21 67 25 133 86 166 154
l25 50 3 1575 c3 1770 9 1627 -75 1720 -25 28 -69 63 -97 78 -48 25 -60 27
-214 30 -216 5 -252 -10 -252 -106 0 -93 23 -106 213 -112 l149 -5 29 -33 29
-32 0 -1240 0 -1240 -2340 0 -2340 0 0 1240 0 1240 29 32 29 33 469 5 c489 5
500 6 523 50 13 24 13 96 0 121 -26 48 -37 49 -542 48 -260 0 -484 -4 -498 -8z
m4670 -3151 c0 -187 -7 -216 -55 -238 -20 -9 -555 -12 -2286 -12 -2459 0
-2300 -4 -2327 55 -8 17 -12 85 -12 195 l0 170 2340 0 2340 0 0 -170z m-1992
-553 c22 -82 95 -245 132 -297 11 -16 20 -31 20 -34 0 -3 -225 -6 -500 -6
-275 0 -500 3 -500 6 0 3 9 19 21 35 37 52 108 214 130 297 l22 82 326 0 326
0 23 -83z"/>
<path d="M1753 3035 c-82 -18 -155 -58 -214 -117 -82 -82 -191 -322 -310 -682
-63 -189 -68 -220 -44 -266 34 -66 86 -66 292 1 346 112 599 226 688 310 170
161 181 444 22 616 -113 122 -276 174 -434 138z m185 -231 c99 -41 157 -152
132 -254 -18 -76 -66 -123 -184 -180 -96 -47 -417 -171 -425 -164 -11 9 134
382 187 479 31 58 48 76 92 103 62 37 134 43 198 16z"/>
</g>
</svg>
