<?xml version="1.0" standalone="no"?>
<!DOCTYPE svg PUBLIC "-//W3C//DTD SVG 20010904//EN"
 "http://www.w3.org/TR/2001/REC-SVG-20010904/DTD/svg10.dtd">
<svg version="1.0" xmlns="http://www.w3.org/2000/svg"
 width="512.000000pt" height="512.000000pt" viewBox="0 0 512.000000 512.000000"
 preserveAspectRatio="xMidYMid meet">

  <linearGradient id="gradiente" x1="0%" y1="0%" x2="100%" y2="100%">
      <stop offset="0%" stop-color="#4C1FEE"/>
      <stop offset="20%" stop-color="#0066FF"/>
      <stop offset="40%" stop-color="#0089FF"/>
      <stop offset="60%" stop-color="#00A0FF"/>
      <stop offset="80%" stop-color="#00B2D7"/>      
    </linearGradient>

<g transform="translate(0.000000,512.000000) scale(0.100000,-0.100000)"
fill="url(#gradiente)" stroke="none">
<path d="M2325 5113 c-179 -27 -335 -111 -461 -246 -83 -90 -128 -162 -166
-269 -59 -168 -60 -343 -3 -514 46 -137 93 -203 281 -394 l172 -175 4 -115 c3
-104 6 -121 35 -182 17 -37 52 -89 77 -116 l46 -49 0 -207 0 -206 -165 0 -165
0 0 439 0 438 -23 34 c-12 18 -38 44 -56 56 l-34 23 -877 0 -877 0 -33 -22
c-18 -13 -43 -36 -54 -51 -21 -28 -21 -33 -24 -901 l-2 -872 23 -44 c16 -30
37 -51 67 -67 l43 -23 856 0 c813 0 858 1 897 19 23 10 52 34 65 52 l24 34 3
363 3 362 164 0 165 0 0 -910 0 -910 -245 0 -245 0 0 165 0 165 -72 0 -72 0
49 50 50 50 -178 177 -177 178 -50 -50 -50 -49 0 72 0 72 -245 0 -245 0 0 -70
c0 -38 -3 -70 -7 -70 -4 0 -29 21 -55 47 l-48 48 -170 -170 c-94 -93 -170
-174 -170 -180 0 -5 21 -31 47 -57 l47 -48 -72 0 -72 0 0 -245 0 -245 70 0
c39 0 70 -2 70 -5 0 -2 -20 -23 -45 -46 -25 -23 -45 -47 -45 -53 0 -14 331
-346 345 -346 5 0 31 21 57 47 l48 47 0 -72 0 -72 245 0 245 0 0 72 0 72 48
-47 c26 -26 52 -47 57 -47 6 0 87 76 180 170 l170 170 -48 48 c-26 26 -47 51
-47 55 0 4 155 7 344 7 339 0 343 0 377 23 19 12 44 42 57 67 l22 44 0 1171 0
1170 80 0 80 0 0 -675 c0 -637 1 -677 19 -716 10 -23 34 -52 52 -65 33 -23 41
-24 232 -27 l197 -3 0 -603 0 -603 23 -34 c12 -18 38 -44 56 -56 l34 -23 877
0 877 0 33 22 c18 13 43 36 54 51 21 28 21 34 24 890 2 584 0 874 -8 898 -15
52 -77 106 -132 114 -24 3 -421 5 -883 3 l-840 -3 -38 -24 c-68 -42 -77 -74
-77 -286 l0 -185 -165 0 -165 0 0 660 0 660 410 0 410 0 0 -80 0 -80 70 0 c39
0 70 -3 70 -7 0 -4 -20 -28 -45 -53 l-45 -45 175 -175 175 -175 50 50 50 49 0
-72 0 -72 245 0 245 0 0 70 c0 39 3 70 7 70 4 0 29 -21 55 -47 l48 -48 175
175 175 175 -52 52 -52 53 72 0 72 0 0 245 0 245 -72 0 -72 0 47 48 c26 26 47
52 47 57 0 6 -76 87 -170 180 l-170 170 -48 -48 c-26 -26 -51 -47 -55 -47 -4
0 -7 32 -7 70 l0 70 -245 0 -245 0 0 -72 0 -72 -50 49 -50 50 -175 -175 -175
-175 45 -45 c25 -25 45 -49 45 -53 0 -4 -31 -7 -70 -7 l-70 0 0 -80 0 -80
-368 0 -368 0 35 72 c34 68 36 78 39 187 l4 116 157 160 c181 183 206 215 255
311 221 442 -17 971 -499 1109 -47 14 -110 18 -295 20 -129 2 -248 1 -265 -2z
m510 -178 c216 -55 395 -234 450 -450 32 -127 14 -299 -46 -418 -43 -88 -64
-114 -233 -284 -107 -109 -157 -153 -173 -153 l-23 0 0 249 0 248 79 5 c62 4
88 10 125 32 145 85 165 286 40 396 -52 45 -93 60 -166 60 -147 0 -248 -113
-248 -277 l0 -53 -80 0 -80 0 0 53 c0 164 -102 277 -248 277 -73 0 -114 -15
-166 -60 -125 -110 -105 -311 40 -396 37 -22 63 -28 125 -32 l79 -5 0 -248 0
-249 -23 0 c-16 0 -66 44 -173 153 -169 170 -190 196 -233 284 -60 119 -78
291 -46 418 54 213 233 394 445 449 80 21 474 22 555 1z m-542 -506 c12 -15
17 -39 17 -81 l0 -60 -55 4 c-40 3 -62 11 -80 28 -34 32 -34 82 1 117 21 21
32 24 62 19 20 -3 45 -15 55 -27z m652 6 c34 -33 34 -83 0 -115 -18 -17 -40
-25 -80 -28 l-55 -4 0 61 c0 52 4 66 25 86 15 16 36 25 55 25 19 0 40 -9 55
-25z m-305 -555 l0 -250 -80 0 -80 0 0 250 0 250 80 0 80 0 0 -250z m1834
-290 c36 -82 141 -124 217 -86 l33 17 58 -59 59 -58 -17 -39 c-34 -82 4 -175
86 -211 l40 -18 0 -82 0 -82 -33 -11 c-87 -29 -129 -129 -92 -218 l16 -37 -57
-57 -56 -57 -34 14 c-90 38 -196 -6 -225 -93 l-11 -33 -83 0 c-79 0 -83 1 -89
24 -8 32 -52 83 -87 101 -37 20 -102 19 -141 -1 l-31 -16 -59 59 -59 59 16 30
c19 37 19 107 0 143 -18 35 -69 79 -101 87 -23 6 -24 10 -24 89 l0 83 33 11
c35 12 76 50 96 88 16 30 14 109 -3 142 -15 27 -14 29 43 85 l58 58 31 -16
c38 -20 92 -21 135 -2 38 15 84 66 93 102 6 23 10 24 88 24 l82 0 18 -40z
m-4038 -169 c-106 -144 -133 -332 -72 -495 14 -35 50 -102 80 -147 54 -81 56
-86 56 -150 0 -114 52 -241 132 -326 l30 -31 -38 -34 c-107 -92 -193 -209
-245 -338 l-33 -80 -88 0 -88 0 0 825 0 825 151 0 151 0 -36 -49z m779 34
c210 -55 323 -276 246 -479 l-11 -28 -41 37 c-58 52 -94 64 -219 74 -143 12
-233 51 -321 141 -32 33 -61 60 -63 60 -10 0 -126 -81 -126 -88 0 -4 14 -24
30 -44 l31 -37 -28 -6 c-55 -12 -125 -50 -155 -84 -34 -39 -43 -33 -54 37 -11
73 0 163 27 222 44 94 144 175 246 199 68 16 372 13 438 -4z m605 -810 l0
-825 -94 0 -93 0 -23 63 c-44 121 -145 268 -241 348 l-50 42 34 36 c78 81 122
186 132 316 6 72 11 87 50 146 61 94 83 140 100 211 37 158 1 326 -97 451
l-30 37 156 0 156 0 0 -825z m990 772 c0 -161 -105 -277 -250 -277 -145 0
-250 116 -250 277 l0 53 250 0 250 0 0 -53z m-1795 -495 c45 -15 102 -26 164
-30 81 -4 98 -8 118 -28 22 -22 23 -31 23 -147 0 -82 -5 -141 -15 -175 -23
-78 -87 -150 -169 -192 -61 -31 -77 -35 -145 -35 -133 1 -235 64 -293 183 -32
64 -33 72 -36 205 -4 153 4 189 46 206 44 18 206 49 222 43 8 -3 46 -16 85
-30z m-19 -772 c39 0 93 7 119 15 46 13 50 13 79 -8 97 -67 205 -195 246 -292
l19 -45 -464 0 c-333 0 -465 3 -465 11 0 6 16 42 36 80 42 80 136 186 206 233
48 33 49 33 100 19 29 -7 84 -13 124 -13z m2577 -217 c-74 -97 -108 -214 -100
-343 6 -107 36 -190 105 -292 40 -59 52 -86 52 -115 0 -124 51 -264 128 -352
l38 -44 -87 -86 c-94 -94 -164 -202 -200 -308 l-21 -63 -94 0 -94 0 0 825 0
825 155 0 155 0 -37 -47z m838 16 c77 -36 130 -87 169 -161 43 -80 53 -194 25
-278 l-17 -52 -37 35 c-57 55 -94 69 -211 77 -66 5 -126 16 -162 30 -69 25
-162 92 -201 143 l-28 37 -64 -43 c-36 -23 -65 -47 -65 -52 0 -6 13 -27 30
-47 l30 -36 -37 -7 c-53 -10 -92 -31 -139 -77 l-42 -40 -13 39 c-7 21 -13 70
-12 108 1 156 87 275 241 336 42 17 72 19 262 16 209 -2 217 -3 271 -28z m539
-794 l0 -825 -89 0 -89 0 -13 38 c-40 123 -142 278 -239 364 l-59 51 45 55
c78 96 114 190 114 301 0 61 3 71 41 126 118 175 151 314 114 473 -17 71 -54
150 -97 205 l-30 37 151 0 151 0 0 -825z m-827 290 c41 -15 118 -31 185 -39
157 -18 155 -16 150 -196 -3 -110 -8 -144 -25 -182 -28 -62 -96 -134 -158
-166 -44 -23 -62 -27 -145 -27 -81 0 -103 4 -144 24 -63 31 -118 86 -153 153
-26 49 -28 63 -31 196 -4 163 -1 186 31 207 18 12 161 48 211 54 5 1 40 -10
79 -24z m-2946 -173 c38 -81 140 -117 217 -77 l30 16 58 -59 59 -58 -16 -30
c-43 -83 10 -209 98 -229 27 -7 27 -7 27 -90 l0 -83 -33 -11 c-35 -12 -76 -50
-96 -88 -16 -30 -14 -109 3 -142 15 -27 14 -29 -43 -85 l-57 -57 -37 16 c-45
19 -88 19 -130 1 -38 -15 -84 -66 -93 -102 -6 -23 -10 -24 -89 -24 -78 0 -84
2 -91 23 -29 94 -140 142 -229 100 l-36 -17 -56 57 -57 56 17 36 c42 89 -6
200 -100 229 -21 7 -23 13 -23 91 0 79 1 83 24 89 36 9 87 55 102 93 18 42 18
85 -1 130 l-16 37 57 57 c56 57 58 58 85 43 33 -17 112 -19 142 -3 38 20 76
61 88 96 l11 33 81 0 82 -1 22 -47z m2889 -604 c57 -9 87 -9 145 3 41 7 79 14
86 14 25 0 131 -87 181 -148 28 -34 66 -94 86 -132 l36 -70 -235 -3 c-129 -1
-341 -1 -471 0 l-235 3 35 70 c46 92 120 181 197 239 46 35 68 46 83 41 12 -3
53 -11 92 -17z"/>
<path d="M4268 3451 c-76 -19 -163 -75 -207 -130 -200 -254 -66 -614 251 -672
267 -49 520 204 470 471 -31 170 -143 292 -307 335 -75 19 -123 18 -207 -4z
m238 -186 c131 -81 154 -270 47 -380 -121 -125 -325 -89 -399 69 -42 91 -28
186 40 263 57 65 104 84 192 81 58 -3 80 -9 120 -33z"/>
<path d="M1003 1149 c-219 -37 -372 -253 -335 -471 37 -212 229 -364 437 -345
221 21 377 190 378 412 0 252 -231 447 -480 404z m172 -183 c159 -73 193 -275
68 -400 -107 -106 -297 -82 -377 48 -38 61 -47 154 -21 221 19 51 97 126 147
142 58 19 129 15 183 -11z"/>
</g>
</svg>
