<?xml version="1.0" standalone="no"?>
<!DOCTYPE svg PUBLIC "-//W3C//DTD SVG 20010904//EN"
 "http://www.w3.org/TR/2001/REC-SVG-20010904/DTD/svg10.dtd">
<svg version="1.0" xmlns="http://www.w3.org/2000/svg"
 width="512.000000pt" height="512.000000pt" viewBox="0 0 512.000000 512.000000"
 preserveAspectRatio="xMidYMid meet">

     <linearGradient id="gradiente" x1="0%" y1="0%" x2="100%" y2="100%">
      <stop offset="0%" stop-color="#1FBE5C"/>
      <stop offset="20%" stop-color="#00A979"/>
      <stop offset="40%" stop-color="#009188"/>
      <stop offset="60%" stop-color="#007986"/>
      <stop offset="80%" stop-color="#006075"/>
      <stop offset="100%" stop-color="#2F4858"/>
    </linearGradient>

<g transform="translate(0.000000,512.000000) scale(0.100000,-0.100000)"
fill="url(#gradiente)" stroke="none">
<path d="M2345 4659 c-406 -28 -778 -181 -1097 -451 l-44 -37 -69 26 c-85 31
-245 43 -334 24 -217 -47 -409 -232 -467 -449 -19 -75 -19 -230 1 -306 44
-165 173 -321 325 -394 101 -48 163 -62 273 -62 202 0 385 98 501 267 161 236
136 550 -60 762 l-55 60 58 46 c224 178 476 296 758 357 98 20 136 23 340 23
252 -1 330 -12 534 -76 170 -54 469 -215 536 -290 l19 -20 -83 2 c-77 3 -85 1
-102 -20 -24 -29 -24 -53 0 -82 19 -23 24 -24 206 -27 258 -4 248 -17 185 243
-29 123 -43 163 -60 177 -29 23 -55 23 -80 -2 -22 -22 -25 -56 -9 -113 6 -22
8 -41 6 -43 -3 -3 -42 22 -88 55 -93 67 -272 163 -394 211 -232 92 -538 138
-800 119z m-1290 -574 c162 -43 295 -180 340 -350 66 -255 -100 -522 -364
-585 -73 -17 -200 -8 -274 20 -32 12 -86 43 -120 68 -269 205 -244 627 48 798
106 62 248 80 370 49z"/>
<path d="M974 3700 c-48 -60 -91 -110 -95 -110 -4 0 -11 5 -14 11 -13 20 -88
69 -107 69 -27 0 -58 -36 -58 -69 0 -25 14 -41 84 -100 88 -75 118 -85 153
-53 25 21 195 239 211 269 7 12 12 29 12 37 0 26 -38 56 -70 56 -26 0 -41 -14
-116 -110z"/>
<path d="M2343 4141 c-105 -39 -180 -107 -231 -211 -24 -49 -27 -66 -27 -160
0 -93 3 -111 27 -163 15 -32 44 -78 64 -102 l36 -45 -27 -10 c-240 -91 -426
-285 -507 -530 -31 -93 -32 -99 -36 -325 -4 -255 -1 -280 53 -342 43 -50 98
-73 193 -80 l73 -6 -24 -26 c-45 -48 -44 -63 18 -172 72 -127 84 -135 172
-119 63 12 68 12 108 -10 38 -21 45 -30 58 -80 24 -86 39 -94 167 -98 143 -5
160 4 190 93 19 58 26 68 63 86 38 20 46 21 108 9 49 -8 73 -9 88 -1 25 14
131 199 131 231 0 13 -11 38 -24 55 l-25 32 76 7 c86 7 157 39 192 87 43 58
51 101 51 284 0 192 -15 305 -55 412 -85 225 -287 422 -509 497 -16 6 -14 11
19 47 20 23 51 71 69 108 28 59 31 75 30 156 -1 118 -26 184 -101 265 -81 88
-158 123 -277 127 -71 3 -102 -1 -143 -16z m218 -126 c62 -21 109 -63 144
-126 25 -45 29 -65 29 -124 0 -79 -21 -131 -75 -184 -166 -166 -449 -50 -449
184 0 183 178 309 351 250z m125 -680 c190 -64 329 -184 417 -360 58 -116 68
-168 74 -386 7 -264 0 -279 -142 -279 l-77 0 41 46 c25 29 41 57 41 72 0 33
-105 218 -131 233 -15 8 -39 7 -88 -1 -61 -11 -70 -11 -107 8 -34 17 -42 29
-64 88 -32 87 -44 94 -181 94 -131 0 -151 -11 -175 -99 -15 -51 -21 -60 -60
-80 -41 -22 -47 -23 -109 -11 -86 16 -98 8 -170 -119 -64 -113 -64 -122 -6
-186 l36 -40 -75 -3 c-138 -6 -143 5 -138 285 4 197 5 212 32 288 62 180 193
329 358 409 124 60 205 77 339 72 80 -3 125 -11 185 -31z m-143 -678 c17 -53
23 -59 70 -83 28 -15 63 -35 78 -47 27 -19 59 -20 134 -1 16 4 26 -4 43 -34
12 -22 22 -45 22 -51 0 -6 -16 -28 -35 -50 -35 -38 -35 -39 -35 -136 0 -97 0
-98 35 -136 19 -22 35 -44 35 -50 0 -6 -10 -29 -22 -51 -17 -30 -27 -38 -43
-34 -79 20 -105 19 -143 -6 -20 -14 -56 -35 -79 -46 -36 -19 -44 -29 -60 -79
l-18 -58 -52 -3 -52 -3 -18 57 c-18 60 -23 65 -118 120 -53 32 -65 35 -105 29
-82 -13 -83 -13 -108 33 l-24 42 40 45 39 45 0 95 0 95 -39 45 -39 44 20 40
c12 22 25 42 29 45 5 3 36 0 69 -6 59 -11 61 -10 104 19 24 17 54 33 65 37 31
10 49 34 69 94 l17 53 51 -3 52 -3 18 -58z"/>
<path d="M2382 2482 c-93 -37 -152 -124 -152 -227 0 -77 24 -129 83 -182 141
-123 357 -52 398 131 42 188 -149 349 -329 278z m172 -151 c66 -66 25 -176
-70 -187 -70 -9 -124 42 -124 117 0 99 121 142 194 70z"/>
<path d="M4147 4015 c-22 -7 -50 -24 -64 -37 -14 -12 -124 -221 -245 -463
l-220 -440 4 -61 c5 -74 39 -126 102 -155 36 -16 68 -19 264 -19 l222 0 0 -32
c0 -18 -5 -84 -10 -147 -38 -426 -214 -798 -520 -1101 -92 -91 -276 -237 -286
-227 -2 2 7 31 21 65 30 74 31 96 5 122 -26 26 -62 25 -87 -2 -24 -27 -143
-314 -143 -346 0 -47 25 -56 220 -81 l183 -24 24 27 c28 33 29 46 3 79 -17 21
-32 27 -85 32 -36 4 -65 10 -65 14 0 3 21 19 47 36 143 90 325 262 440 417
229 305 345 618 375 1011 l12 157 156 0 c129 0 162 3 195 19 73 34 105 85 105
171 0 44 -23 95 -211 472 -116 233 -222 438 -236 457 -29 38 -93 71 -138 70
-16 0 -47 -6 -68 -14z m95 -132 c25 -28 428 -841 428 -862 0 -11 -7 -27 -16
-35 -14 -14 -67 -16 -441 -16 -383 0 -428 2 -445 17 -10 9 -18 24 -18 35 0 21
404 834 428 861 8 9 23 17 32 17 9 0 24 -8 32 -17z"/>
<path d="M4284 3408 c-23 -25 -117 -143 -140 -177 -2 -2 -22 12 -44 32 -23 19
-49 37 -59 40 -48 12 -94 -42 -74 -86 13 -29 158 -147 179 -147 31 0 55 23
153 149 107 136 121 170 83 204 -29 27 -65 21 -98 -15z"/>
<path d="M637 2778 c-30 -24 -197 -300 -197 -328 0 -46 47 -72 94 -54 9 3 32
33 53 67 l37 61 23 -110 c71 -343 235 -650 483 -908 202 -209 421 -353 695
-457 l100 -38 5 -203 c5 -192 6 -205 29 -245 30 -52 80 -88 141 -102 59 -14
681 -14 740 0 64 14 114 51 147 106 l28 48 3 348 c2 229 0 366 -8 400 -15 72
-52 121 -113 152 l-51 25 -375 0 c-415 0 -422 -1 -483 -66 -46 -50 -58 -93
-58 -213 l0 -110 -57 19 c-96 33 -313 146 -406 213 -345 248 -583 600 -682
1009 -35 145 -34 153 19 96 24 -26 55 -52 68 -57 46 -17 96 25 84 72 -3 12
-63 82 -133 155 -129 134 -150 147 -186 120z m2218 -1393 l25 -24 0 -362 c0
-359 0 -363 -22 -386 l-21 -23 -364 0 -364 0 -24 25 -25 24 0 361 0 361 25 24
24 25 361 0 361 0 24 -25z"/>
<path d="M2509 1080 c-39 -49 -74 -90 -78 -90 -5 0 -25 14 -46 30 -41 32 -56
36 -85 20 -32 -17 -43 -48 -30 -78 14 -33 128 -129 162 -137 33 -8 50 8 158
145 94 121 107 152 72 183 -10 10 -33 17 -50 17 -28 0 -40 -11 -103 -90z"/>
</g>
</svg>
