<?xml version="1.0" standalone="no"?>
<!DOCTYPE svg PUBLIC "-//W3C//DTD SVG 20010904//EN"
 "http://www.w3.org/TR/2001/REC-SVG-20010904/DTD/svg10.dtd">
<svg version="1.0" xmlns="http://www.w3.org/2000/svg"
 width="512.000000pt" height="512.000000pt" viewBox="0 0 512.000000 512.000000"
 preserveAspectRatio="xMidYMid meet">

   <linearGradient id="gradiente" x1="0%" y1="0%" x2="100%" y2="100%">
      <stop offset="0%" stop-color="#E91414"/>
      <stop offset="20%" stop-color="#FF412D"/>
      <stop offset="40%" stop-color="#FF6246"/>
      <stop offset="60%" stop-color="#FF805F"/>
      <stop offset="80%" stop-color="#FF9E79"/>
    </linearGradient>

<g transform="translate(0.000000,512.000000) scale(0.100000,-0.100000)"
fill="url(#gradiente)" stroke="none">
<path d="M2204 4839 c-15 -16 -20 -40 -22 -104 l-4 -83 -76 -17 c-121 -27
-327 -98 -442 -152 -450 -212 -816 -579 -1026 -1028 -55 -118 -115 -292 -144
-417 l-22 -96 -83 -4 c-96 -4 -125 -20 -125 -73 0 -56 19 -69 105 -75 l76 -5
0 -225 0 -225 -76 -5 c-86 -6 -105 -19 -105 -75 0 -53 29 -69 125 -73 l83 -4
22 -96 c145 -629 581 -1167 1170 -1445 115 -54 321 -125 442 -152 l76 -17 4
-83 c4 -96 20 -125 73 -125 56 0 69 19 75 105 l5 76 225 0 225 0 5 -76 c6 -86
19 -105 75 -105 53 0 69 29 73 125 l4 83 96 22 c783 181 1411 809 1592 1592
l22 96 83 4 c96 4 125 20 125 73 0 56 -19 69 -105 75 l-76 5 0 225 0 225 76 5
c86 6 105 19 105 75 0 53 -29 69 -125 73 l-83 4 -22 96 c-181 784 -808 1411
-1592 1592 l-96 22 -4 83 c-4 96 -20 125 -73 125 -56 0 -69 -19 -75 -105 l-5
-76 -225 0 -225 0 -5 76 c-4 61 -9 80 -24 91 -29 21 -80 18 -102 -7z m564
-315 l22 -6 0 -239 c0 -301 -14 -279 175 -279 74 0 135 -3 135 -6 0 -3 -114
-138 -252 -301 -139 -162 -260 -305 -270 -316 l-16 -21 -19 21 c-306 357 -519
607 -521 614 -2 5 57 9 132 9 190 0 176 -22 176 279 0 220 1 240 18 244 26 7
394 8 420 1z m-588 -199 l0 -175 -167 0 c-115 0 -176 -4 -193 -13 -31 -16 -47
-58 -34 -92 5 -13 120 -155 257 -314 136 -160 247 -293 247 -298 0 -4 -28 -19
-63 -32 -224 -85 -423 -284 -508 -508 -13 -35 -27 -63 -31 -63 -5 0 -138 111
-298 248 -160 136 -301 251 -315 256 -34 13 -76 -3 -92 -34 -9 -17 -13 -78
-13 -192 l0 -168 -176 0 c-162 0 -175 1 -170 18 3 9 15 55 26 102 12 47 38
128 57 180 223 601 716 1052 1338 1225 66 19 123 34 128 34 4 1 7 -78 7 -174z
m880 145 c47 -12 128 -38 180 -57 531 -197 949 -608 1161 -1141 24 -59 99
-310 99 -329 0 -2 -78 -3 -174 -3 l-174 0 -4 181 c-3 176 -4 181 -27 200 -13
10 -36 19 -52 19 -31 0 -14 13 -396 -312 -127 -109 -235 -198 -240 -198 -4 0
-19 28 -32 63 -86 225 -291 430 -512 511 -32 11 -59 25 -59 29 0 5 111 138
248 298 136 159 251 301 256 314 13 34 -3 76 -34 92 -17 9 -78 13 -192 13
l-168 0 0 176 c0 162 1 175 18 170 9 -3 55 -15 102 -26z m-591 -1240 c86 -91
96 -91 183 1 l67 71 68 -21 c116 -36 208 -94 308 -195 76 -76 98 -106 137
-186 26 -52 52 -115 58 -139 l11 -43 -70 -67 c-51 -48 -71 -73 -71 -91 0 -18
20 -43 71 -91 l70 -67 -11 -43 c-6 -24 -32 -87 -58 -139 -39 -80 -61 -110
-137 -186 -100 -101 -192 -159 -308 -195 l-68 -21 -67 71 c-87 93 -97 93 -183
0 l-67 -70 -43 11 c-194 52 -382 209 -472 393 -25 50 -51 112 -57 136 l-11 43
70 67 c93 86 93 96 0 183 l-71 66 16 55 c53 184 207 370 376 457 45 23 167 69
184 70 5 0 39 -31 75 -70z m-1042 -382 c162 -139 304 -261 315 -270 l20 -18
-20 -17 c-203 -176 -612 -523 -616 -523 -3 0 -6 61 -6 135 0 189 22 175 -279
175 l-239 0 -6 23 c-8 29 -8 385 0 415 l6 22 239 0 c301 0 279 -14 279 175 0
74 3 135 6 135 3 0 138 -114 301 -252z m2573 117 c0 -189 -22 -175 279 -175
l239 0 6 -22 c8 -30 8 -386 0 -415 l-6 -23 -239 0 c-301 0 -279 14 -279 -176
0 -78 -4 -134 -9 -132 -13 4 -630 532 -630 538 0 7 623 539 632 540 4 0 7 -61
7 -135z m-2295 -702 c11 -46 80 -177 124 -236 95 -129 258 -256 394 -307 37
-14 67 -29 67 -33 0 -4 -111 -138 -247 -298 -137 -159 -252 -300 -257 -314
-13 -34 3 -76 34 -92 17 -9 78 -13 193 -13 l167 0 0 -175 c0 -96 -1 -175 -3
-175 -2 0 -59 15 -128 34 -623 171 -1116 622 -1342 1226 -19 52 -45 133 -57
180 -11 47 -23 93 -26 103 -5 16 8 17 170 17 l176 0 0 -167 c0 -115 4 -176 13
-193 15 -29 54 -46 88 -36 13 3 155 118 314 255 160 137 295 250 301 250 7 1
15 -11 19 -26z m1968 -171 c382 -325 365 -312 396 -312 16 0 39 9 52 19 23 19
24 24 27 200 l4 181 174 0 c96 0 174 -1 174 -3 0 -2 -15 -59 -34 -128 -129
-468 -414 -865 -815 -1133 -168 -112 -407 -220 -591 -266 -47 -11 -93 -23
-102 -26 -17 -5 -18 8 -18 170 l0 174 181 4 c176 3 181 4 200 27 10 13 19 36
19 52 0 31 13 14 -312 396 -109 127 -198 236 -198 241 0 5 18 14 40 21 54 16
161 74 226 122 126 93 253 257 304 392 14 37 29 67 33 67 5 0 113 -89 240
-198z m-1067 -382 c85 -95 494 -579 494 -584 0 -3 -61 -6 -135 -6 -189 0 -175
22 -175 -279 l0 -239 -22 -6 c-30 -8 -386 -8 -415 0 l-23 6 0 239 c0 301 14
279 -175 279 -74 0 -135 3 -135 6 0 3 114 138 253 301 138 162 259 303 267
313 8 11 17 18 20 17 3 -1 24 -22 46 -47z"/>
<path d="M2417 2916 c-106 -44 -187 -130 -223 -238 -25 -75 -16 -206 18 -280
34 -74 112 -152 186 -186 50 -24 69 -27 162 -27 93 0 112 3 162 27 74 34 152
112 186 186 24 50 27 69 27 162 0 93 -3 112 -27 162 -34 74 -112 152 -186 186
-47 22 -74 27 -152 30 -82 2 -103 -1 -153 -22z m260 -156 c153 -88 153 -312 0
-400 -112 -64 -253 -28 -317 83 -64 112 -28 253 83 317 43 25 63 30 117 30 54
0 74 -5 117 -30z"/>
</g>
</svg>
