<?xml version="1.0" standalone="no"?>
<!DOCTYPE svg PUBLIC "-//W3C//DTD SVG 20010904//EN"
 "http://www.w3.org/TR/2001/REC-SVG-20010904/DTD/svg10.dtd">
<svg version="1.0" xmlns="http://www.w3.org/2000/svg"
 width="512.000000pt" height="512.000000pt" viewBox="0 0 512.000000 512.000000"
 preserveAspectRatio="xMidYMid meet">

     <linearGradient id="gradiente" x1="0%" y1="0%" x2="100%" y2="100%">
      <stop offset="0%" stop-color="#d4c528"/>
      <stop offset="20%" stop-color="#ddaf0a"/>
      <stop offset="40%" stop-color="#e49900"/>
      <stop offset="60%" stop-color="#e98000"/>
      <stop offset="80%" stop-color="#eb6612"/>
    </linearGradient>

<g transform="translate(0.000000,512.000000) scale(0.100000,-0.100000)"
fill="url(#gradiente)" stroke="none">
<path d="M2560 4963 l0 -80 67 -6 c41 -3 70 -1 74 5 8 13 21 139 15 145 -2 2
-38 7 -80 10 l-76 6 0 -80z"/>
<path d="M2305 5013 c-38 -8 -72 -16 -74 -18 -4 -4 17 -98 30 -131 8 -21 9
-22 75 -8 37 8 69 16 71 18 6 5 -19 156 -26 155 -3 0 -37 -7 -76 -16z"/>
<path d="M2885 4987 c-12 -38 -35 -126 -35 -135 0 -7 115 -52 134 -52 5 0 56
127 56 139 0 15 -150 62 -155 48z"/>
<path d="M1988 4904 c-38 -19 -68 -36 -68 -39 0 -3 68 -124 75 -133 2 -2 32
12 68 30 l65 33 -30 73 c-17 39 -34 72 -37 72 -3 -1 -36 -17 -73 -36z"/>
<path d="M3160 4808 c-19 -35 -36 -66 -38 -69 -2 -4 24 -25 57 -47 l60 -40 45
58 c25 32 46 62 46 67 0 7 -122 93 -132 93 -2 0 -19 -28 -38 -62z"/>
<path d="M1713 4716 l-58 -55 55 -55 55 -55 54 48 55 48 -37 50 c-60 81 -57
81 -124 19z"/>
<path d="M3403 4608 l-52 -53 48 -55 49 -54 56 43 c31 24 59 47 61 52 5 8 -92
119 -104 119 -4 0 -30 -24 -58 -52z"/>
<path d="M2048 4112 c-416 -416 -448 -450 -448 -482 0 -31 26 -60 348 -383
191 -192 360 -355 376 -364 15 -8 38 -12 50 -9 11 3 223 207 469 454 l448 448
-3 368 -3 368 -28 24 -28 24 -367 0 -367 0 -447 -448z m1082 5 l0 -282 -385
-385 -385 -385 -282 283 -283 282 385 385 385 385 282 0 283 0 0 -283z"/>
<path d="M2708 4260 c-63 -12 -128 -59 -161 -119 -70 -124 -16 -281 115 -335
50 -21 143 -20 193 3 46 20 101 79 121 127 20 47 17 141 -5 189 -43 95 -158
154 -263 135z m112 -190 c29 -54 -4 -120 -59 -120 -43 0 -60 9 -77 41 -24 47
1 101 51 111 29 6 74 -11 85 -32z"/>
<path d="M1492 4464 c-24 -36 -42 -67 -40 -68 2 -2 33 -20 69 -40 l67 -37 40
61 40 60 -56 45 c-32 25 -61 45 -67 45 -5 0 -29 -30 -53 -66z"/>
<path d="M3595 4364 c-33 -20 -61 -37 -63 -39 -2 -1 11 -32 29 -68 l32 -65 70
29 c39 16 72 31 75 33 5 6 -67 146 -76 146 -4 -1 -34 -17 -67 -36z"/>
<path d="M1347 4165 l-26 -75 52 -15 c112 -31 101 -34 126 41 12 36 20 68 18
70 -8 8 -119 54 -131 54 -9 0 -24 -30 -39 -75z"/>
<path d="M3705 4071 c-41 -11 -59 -21 -58 -31 1 -8 7 -41 13 -73 11 -56 13
-58 38 -53 15 3 51 8 79 11 48 6 52 9 48 28 -2 12 -9 48 -15 80 -13 65 -12 65
-105 38z"/>
<path d="M1287 3884 c-4 -22 -7 -58 -7 -81 l0 -43 79 0 78 0 6 68 c3 37 2 70
-1 74 -4 3 -39 10 -78 13 l-71 7 -6 -38z"/>
<path d="M3680 3723 c0 -21 -3 -54 -6 -74 l-6 -36 80 -9 80 -10 6 45 c3 24 6
61 6 82 l0 39 -80 0 -80 0 0 -37z"/>
<path d="M1351 3599 c-30 -5 -56 -10 -57 -12 -4 -3 25 -149 30 -155 3 -2 38 5
78 15 49 14 72 25 71 34 -1 8 -7 40 -13 72 -13 64 -9 62 -109 46z"/>
<path d="M3621 3404 c-12 -37 -18 -70 -14 -74 21 -18 133 -58 138 -50 4 6 17
41 30 80 26 77 32 68 -55 90 -25 6 -52 13 -61 16 -12 3 -21 -11 -38 -62z"/>
<path d="M1450 3299 c-35 -17 -66 -32 -68 -33 -4 -5 67 -146 73 -146 5 0 40
21 112 66 l23 14 -32 65 c-18 36 -35 65 -38 64 -3 0 -34 -14 -70 -30z"/>
<path d="M3490 3139 c-23 -33 -40 -62 -38 -63 2 -1 26 -19 53 -41 28 -21 55
-42 61 -47 7 -5 27 17 57 61 l46 70 -34 20 c-19 12 -50 30 -69 41 l-34 20 -42
-61z"/>
<path d="M1607 3028 c-31 -24 -56 -46 -57 -50 0 -4 24 -33 54 -65 l55 -58 55
54 55 54 -46 54 c-25 29 -49 53 -52 53 -4 0 -33 -19 -64 -42z"/>
<path d="M438 2682 c-257 -256 -278 -280 -278 -312 0 -32 20 -54 248 -282 228
-228 250 -248 282 -248 32 0 56 21 312 278 l278 277 0 258 0 258 -25 24 -24
25 -258 0 -258 0 -277 -278z m682 -50 l0 -167 -215 -215 -215 -215 -167 168
-168 167 215 215 215 215 167 0 168 0 0 -168z"/>
<path d="M885 2669 c-31 -18 -45 -40 -45 -74 0 -55 59 -90 115 -69 23 9 46 60
39 88 -12 47 -70 76 -109 55z"/>
<path d="M3298 2919 c-27 -23 -48 -45 -48 -50 0 -11 78 -113 90 -117 4 -2 34
22 66 52 l59 55 -50 50 c-27 28 -54 51 -60 51 -5 -1 -31 -19 -57 -41z"/>
<path d="M4118 2682 c-257 -256 -278 -280 -278 -312 0 -32 20 -54 248 -282
228 -228 250 -248 282 -248 32 0 56 21 312 278 l278 277 0 258 0 258 -25 24
-24 25 -258 0 -258 0 -277 -278z m682 -55 l0 -172 -213 -213 -212 -212 -170
170 -170 170 215 215 215 215 167 0 168 0 0 -173z"/>
<path d="M4565 2668 c-30 -17 -44 -40 -45 -71 0 -38 40 -77 80 -77 39 0 80 39
80 75 0 31 -49 85 -77 85 -10 0 -27 -6 -38 -12z"/>
<path d="M1863 2847 c-11 -12 -34 -41 -51 -63 l-32 -41 69 -46 c77 -51 70 -53
120 35 l31 56 -59 40 -59 41 -19 -22z"/>
<path d="M3055 2758 c-33 -17 -61 -31 -63 -33 -3 -3 49 -127 58 -138 4 -5 40
8 79 28 l72 36 -32 57 c-48 86 -45 85 -114 50z"/>
<path d="M2123 2703 c-3 -10 -17 -42 -29 -70 -13 -30 -19 -55 -13 -58 5 -4 40
-17 79 -30 l70 -24 10 42 c6 23 16 57 22 75 5 18 8 35 6 37 -5 5 -121 45 -130
45 -5 0 -11 -8 -15 -17z"/>
<path d="M2781 2663 c-36 -7 -66 -15 -69 -18 -5 -4 14 -144 20 -150 4 -4 149
23 155 29 5 4 -25 126 -35 142 -5 7 -26 6 -71 -3z"/>
<path d="M2405 2575 c-4 -42 -5 -79 -2 -81 3 -3 39 -8 81 -11 l76 -6 0 82 0
81 -37 0 c-21 0 -54 3 -74 6 l-36 6 -8 -77z"/>
<path d="M1785 2295 l-25 -24 0 -1071 0 -1071 25 -24 24 -25 751 0 751 0 24
25 25 24 0 1071 0 1071 -25 24 -24 25 -751 0 -751 0 -24 -25z m1415 -1095 l0
-960 -640 0 -640 0 0 960 0 960 640 0 640 0 0 -960z"/>
<path d="M2480 1631 c0 -45 -2 -50 -30 -61 -68 -28 -130 -129 -130 -210 0
-123 116 -240 239 -240 42 0 81 -38 81 -80 0 -41 -39 -80 -80 -80 -33 0 -80
38 -80 65 0 12 -15 15 -80 15 -89 0 -90 0 -68 -72 14 -48 76 -121 118 -138 28
-11 30 -16 30 -61 l0 -49 80 0 80 0 0 49 c0 45 2 50 30 61 68 28 130 129 130
210 0 123 -116 240 -239 240 -42 0 -81 38 -81 80 0 41 39 80 80 80 33 0 80
-38 80 -65 0 -12 15 -15 80 -15 89 0 90 0 68 72 -14 48 -76 121 -118 138 -28
11 -30 16 -30 61 l0 49 -80 0 -80 0 0 -49z"/>
<path d="M185 1655 l-25 -24 0 -751 0 -751 25 -24 24 -25 511 0 511 0 24 25
25 24 0 751 0 751 -25 24 -24 25 -511 0 -511 0 -24 -25z m935 -775 l0 -640
-400 0 -400 0 0 640 0 640 400 0 400 0 0 -640z"/>
<path d="M3865 1655 l-25 -24 0 -751 0 -751 25 -24 24 -25 511 0 511 0 24 25
25 24 0 751 0 751 -25 24 -24 25 -511 0 -511 0 -24 -25z m935 -775 l0 -640
-400 0 -400 0 0 640 0 640 400 0 400 0 0 -640z"/>
</g>
</svg>
